{"title":"Teen Wolf S05E01 Creatures of the Night 1080P WEB-DL","uid":12079578,"size":1699226690,"categoryP":"video","categoryS":"hd___tv_shows","magnet":"?xt=urn:btih:006fa6d10a6412d56d447e4753e5fcc8bafcb0c1&amp;dn=+Teen+Wolf+S05E01+Creatures+of+the+Night+1080P+WEB-DL&amp;tr=udp%3A%2F%2Ftracker.openbittorrent.com%3A80&amp;tr=udp%3A%2F%2Fopen.demonii.com%3A1337&amp;tr=udp%3A%2F%2Ftracker.coppersurfer.tk%3A6969&amp;tr=udp%3A%2F%2Fexodus.desync.com%3A6969","seeders":10,"leechers":0,"uploader":"jmanwf","files":2,"time":1435714315,"description":"On the night before the start of Senior Year, Scott and his Pack are challenged by the arrival of a new enemy and the return of an old friend.\n\n\n\nVideo\nID : 2\nFormat : AVC\nFormat/Info : Advanced Video Codec\nFormat profile : High@L4\nFormat settings, CABAC : Yes\nFormat settings, ReFrames : 4 frames\nCodec ID : avc1\nCodec ID/Info : Advanced Video Coding\nDuration : 42mn 13s\nBit rate : 4 853 Kbps\nWidth : 1 916 pixels\nHeight : 1 076 pixels\nDisplay aspect ratio : 16:9\nFrame rate mode : Constant\nFrame rate : 23.976 fps\nColor space : YUV\nChroma subsampling : 4:2:0\nBit depth : 8 bits\nScan type : Progressive\nBits/(Pixel*Frame) : 0.098\nStream size : 1.43 GiB (90%)\nLanguage : English\nEncoded date : UTC 2015-06-30 09:23:33\nTagged date : UTC 2015-06-30 09:27:13\nColor range : Limited\nColor primaries : BT.709\nTransfer characteristics : BT.709\nMatrix coefficients : BT.709\n\nAudio #1\nID : 1\nFormat : AAC\nFormat/Info : Advanced Audio Codec\nFormat profile : LC\nCodec ID : 40\nDuration : 42mn 13s\nDuration_LastFrame : -16ms\nBit rate mode : Variable\nBit rate : 125 Kbps\nMaximum bit rate : 215 Kbps\nChannel(s) : 2 channels\nChannel positions : Front: L R\nSampling rate : 48.0 KHz\nCompression mode : Lossy\nStream size : 37.8 MiB (2%)\nLanguage : English\nEncoded date : UTC 2015-06-30 09:23:33\nTagged date : UTC 2015-06-30 09:27:13\n\nAudio #2\nID : 3\nFormat : AC-3\nFormat/Info : Audio Coding 3\nMode extension : CM (complete main)\nFormat settings, Endianness : Big\nCodec ID : ac-3\nDuration : 42mn 13s\nBit rate mode : Constant\nBit rate : 384 Kbps\nChannel(s) : 6 channels\nChannel positions : Front: L C R, Side: L R, LFE\nSampling rate : 48.0 KHz\nBit depth : 16 bits\nCompression mode : Lossy\nStream size : 116 MiB (7%)\nLanguage : English\nEncoded date : UTC 2015-06-30 09:23:33\nTagged date : UTC 2015-06-30 09:27:13\n\nText\nID : 4-CC1\nFormat : EIA-608\nMuxing mode : Final Cut\nCodec ID : c608\nDuration : 41mn 35s\nBit rate mode : Constant\nStream size : 0.00 Byte (0%)\nLanguage : English\nEncoded date : UTC 2015-06-30 09:23:33\nTagged date : UTC 2015-06-30 09:26:34\n\n\n\n\n &lt;a href=&quot;\nhttps://itunes.apple.com/us/tv-season/teen-wolf-season-5/id1001344135&quot; rel=&quot;nofollow&quot; target=&quot;_NEW&quot;&gt;\nhttps://itunes.apple.com/us/tv-season/teen-wolf-season-5/id1001344135&lt;/a&gt;","torrent":{"xt":"urn:btih:006fa6d10a6412d56d447e4753e5fcc8bafcb0c1","amp;dn":"+Teen+Wolf+S05E01+Creatures+of+the+Night+1080P+WEB-DL","amp;tr":["udp%3A%2F%2Ftracker.openbittorrent.com%3A80","udp%3A%2F%2Fopen.demonii.com%3A1337","udp%3A%2F%2Ftracker.coppersurfer.tk%3A6969","udp%3A%2F%2Fexodus.desync.com%3A6969"],"infoHash":"006fa6d10a6412d56d447e4753e5fcc8bafcb0c1","infoHashBuffer":{"type":"Buffer","data":[0,111,166,209,10,100,18,213,109,68,126,71,83,229,252,200,186,252,176,193]},"announce":[],"urlList":[]}}